<svg width="162" height="62" viewBox="0 0 162 62" fill="none" xmlns="http://www.w3.org/2000/svg">
<path d="M38.516 13.9009C25.6318 21.6817 18.4781 35.9118 14.1788 49.8288C13.9577 50.544 13.6875 51.2618 13.4406 51.9604C12.7502 50.5676 8.03941 38.9997 6.13752 39.707C5.026 40.1204 5.66182 41.6059 5.90643 42.2051C7.67699 46.5372 9.40669 50.4208 11.5222 54.6101C13.1145 57.7639 16.0775 56.9417 19.0126 55.9819C23.4936 54.5164 23.8573 54.0963 28.4468 52.4096C29.2033 52.1315 29.9981 51.9067 30.6992 51.5592C31.5235 51.1502 32.4074 50.2845 31.9697 49.3409C31.4737 48.2715 30.3947 48.347 29.473 48.7397C29.2806 48.8221 29.0852 48.8977 28.888 48.9685C26.7217 49.7463 16.8897 53.895 16.5623 53.1936C16.4517 52.9574 16.4891 52.6826 16.5309 52.4254C17.7344 45.0033 20.9216 37.933 24.6869 31.4731C27.2202 27.126 30.4715 23.1994 34.2604 19.8873C37.3049 17.2257 40.7374 14.9659 44.4765 13.4062C48.4859 11.7334 52.3662 11.3888 56.6495 11.1343C59.1153 10.9881 57.1623 8.63885 55.7903 8.37423C54.2825 8.08296 52.6682 8.60603 51.2034 8.91097C46.5694 9.87805 42.3377 11.5932 38.516 13.9009Z" fill="#4FA4AB"/>
<path d="M69.6186 4.81818H71.483L74.7244 12.733H74.8438L78.0852 4.81818H79.9496V15H78.4879V7.6321H78.3935L75.3906 14.9851H74.1776L71.1747 7.62713H71.0803V15H69.6186V4.81818ZM85.2804 15.1541C84.5645 15.1541 83.9397 14.9901 83.4061 14.6619C82.8725 14.3338 82.4582 13.8748 82.1632 13.2848C81.8682 12.6948 81.7207 12.0054 81.7207 11.2166C81.7207 10.4245 81.8682 9.73177 82.1632 9.13849C82.4582 8.54522 82.8725 8.08452 83.4061 7.75639C83.9397 7.42827 84.5645 7.2642 85.2804 7.2642C85.9963 7.2642 86.621 7.42827 87.1547 7.75639C87.6883 8.08452 88.1026 8.54522 88.3975 9.13849C88.6925 9.73177 88.84 10.4245 88.84 11.2166C88.84 12.0054 88.6925 12.6948 88.3975 13.2848C88.1026 13.8748 87.6883 14.3338 87.1547 14.6619C86.621 14.9901 85.9963 15.1541 85.2804 15.1541ZM85.2853 13.9062C85.7493 13.9062 86.1338 13.7836 86.4387 13.5384C86.7437 13.2931 86.969 12.9666 87.1149 12.5589C87.264 12.1513 87.3386 11.7022 87.3386 11.2116C87.3386 10.7244 87.264 10.277 87.1149 9.86932C86.969 9.45833 86.7437 9.12855 86.4387 8.87997C86.1338 8.63139 85.7493 8.5071 85.2853 8.5071C84.818 8.5071 84.4302 8.63139 84.122 8.87997C83.8171 9.12855 83.59 9.45833 83.4409 9.86932C83.295 10.277 83.2221 10.7244 83.2221 11.2116C83.2221 11.7022 83.295 12.1513 83.4409 12.5589C83.59 12.9666 83.8171 13.2931 84.122 13.5384C84.4302 13.7836 84.818 13.9062 85.2853 13.9062ZM96.2216 9.22798L94.8743 9.46662C94.8179 9.29427 94.7285 9.13021 94.6058 8.97443C94.4865 8.81865 94.3241 8.69105 94.1186 8.59162C93.9131 8.49219 93.6563 8.44247 93.348 8.44247C92.9271 8.44247 92.5758 8.53693 92.294 8.72585C92.0123 8.91146 91.8714 9.15175 91.8714 9.44673C91.8714 9.70194 91.9659 9.90743 92.1548 10.0632C92.3438 10.219 92.6487 10.3466 93.0696 10.446L94.2827 10.7244C94.9853 10.8868 95.509 11.1371 95.8537 11.4751C96.1984 11.8132 96.3707 12.2524 96.3707 12.7926C96.3707 13.25 96.2382 13.6577 95.973 14.0156C95.7112 14.3703 95.3449 14.6487 94.8743 14.8509C94.407 15.053 93.8651 15.1541 93.2486 15.1541C92.3935 15.1541 91.6958 14.9718 91.1555 14.6072C90.6153 14.2393 90.2839 13.7173 90.1612 13.0412L91.598 12.8224C91.6875 13.197 91.8714 13.4804 92.1499 13.6726C92.4283 13.8615 92.7912 13.956 93.2386 13.956C93.7259 13.956 94.1153 13.8549 94.407 13.6527C94.6986 13.4472 94.8445 13.197 94.8445 12.902C94.8445 12.6634 94.755 12.4628 94.576 12.3004C94.4003 12.138 94.1302 12.0154 93.7656 11.9325L92.473 11.6491C91.7604 11.4867 91.2334 11.2282 90.892 10.8736C90.554 10.5189 90.3849 10.0698 90.3849 9.52628C90.3849 9.07552 90.5109 8.68111 90.7628 8.34304C91.0147 8.00497 91.3627 7.74148 91.8068 7.55256C92.2509 7.36032 92.7597 7.2642 93.3331 7.2642C94.1584 7.2642 94.808 7.44318 95.282 7.80114C95.7559 8.15578 96.0691 8.63139 96.2216 9.22798ZM101.57 7.36364V8.55682H97.3986V7.36364H101.57ZM98.5172 5.53409H100.004V12.7578C100.004 13.0462 100.047 13.2633 100.133 13.4091C100.219 13.5516 100.33 13.6494 100.466 13.7024C100.605 13.7521 100.756 13.777 100.919 13.777C101.038 13.777 101.142 13.7687 101.232 13.7521C101.321 13.7356 101.391 13.7223 101.441 13.7124L101.709 14.9403C101.623 14.9735 101.5 15.0066 101.341 15.0398C101.182 15.0762 100.983 15.0961 100.744 15.0994C100.353 15.1061 99.9888 15.0365 99.6507 14.8906C99.3127 14.7448 99.0392 14.5194 98.8304 14.2145C98.6216 13.9096 98.5172 13.5268 98.5172 13.0661V5.53409ZM106.919 17.8636V7.36364H108.371V8.60156H108.495C108.581 8.44247 108.706 8.25852 108.868 8.04972C109.03 7.84091 109.256 7.65862 109.544 7.50284C109.833 7.34375 110.214 7.2642 110.688 7.2642C111.304 7.2642 111.854 7.41998 112.338 7.73153C112.822 8.04309 113.202 8.49219 113.477 9.07884C113.755 9.66548 113.894 10.3714 113.894 11.1967C113.894 12.022 113.757 12.7296 113.482 13.3196C113.207 13.9062 112.829 14.3587 112.348 14.6768C111.868 14.9917 111.319 15.1491 110.703 15.1491C110.239 15.1491 109.859 15.0713 109.564 14.9155C109.272 14.7597 109.044 14.5774 108.878 14.3686C108.712 14.1598 108.585 13.9742 108.495 13.8118H108.406V17.8636H106.919ZM108.376 11.1818C108.376 11.7187 108.454 12.1894 108.61 12.5938C108.765 12.9981 108.991 13.3146 109.286 13.5433C109.581 13.7687 109.942 13.8814 110.369 13.8814C110.814 13.8814 111.185 13.7637 111.483 13.5284C111.781 13.2898 112.007 12.9666 112.159 12.5589C112.315 12.1513 112.393 11.6922 112.393 11.1818C112.393 10.678 112.317 10.2256 112.164 9.82457C112.015 9.42353 111.79 9.10701 111.488 8.875C111.19 8.64299 110.817 8.52699 110.369 8.52699C109.939 8.52699 109.574 8.63802 109.276 8.86009C108.981 9.08215 108.757 9.39205 108.605 9.78977C108.452 10.1875 108.376 10.6515 108.376 11.1818ZM118.776 15.1541C118.061 15.1541 117.436 14.9901 116.902 14.6619C116.369 14.3338 115.954 13.8748 115.659 13.2848C115.364 12.6948 115.217 12.0054 115.217 11.2166C115.217 10.4245 115.364 9.73177 115.659 9.13849C115.954 8.54522 116.369 8.08452 116.902 7.75639C117.436 7.42827 118.061 7.2642 118.776 7.2642C119.492 7.2642 120.117 7.42827 120.651 7.75639C121.184 8.08452 121.599 8.54522 121.894 9.13849C122.189 9.73177 122.336 10.4245 122.336 11.2166C122.336 12.0054 122.189 12.6948 121.894 13.2848C121.599 13.8748 121.184 14.3338 120.651 14.6619C120.117 14.9901 119.492 15.1541 118.776 15.1541ZM118.781 13.9062C119.245 13.9062 119.63 13.7836 119.935 13.5384C120.24 13.2931 120.465 12.9666 120.611 12.5589C120.76 12.1513 120.835 11.7022 120.835 11.2116C120.835 10.7244 120.76 10.277 120.611 9.86932C120.465 9.45833 120.24 9.12855 119.935 8.87997C119.63 8.63139 119.245 8.5071 118.781 8.5071C118.314 8.5071 117.926 8.63139 117.618 8.87997C117.313 9.12855 117.086 9.45833 116.937 9.86932C116.791 10.277 116.718 10.7244 116.718 11.2116C116.718 11.7022 116.791 12.1513 116.937 12.5589C117.086 12.9666 117.313 13.2931 117.618 13.5384C117.926 13.7836 118.314 13.9062 118.781 13.9062ZM123.995 17.8636V7.36364H125.447V8.60156H125.571C125.658 8.44247 125.782 8.25852 125.944 8.04972C126.107 7.84091 126.332 7.65862 126.62 7.50284C126.909 7.34375 127.29 7.2642 127.764 7.2642C128.38 7.2642 128.931 7.41998 129.414 7.73153C129.898 8.04309 130.278 8.49219 130.553 9.07884C130.831 9.66548 130.971 10.3714 130.971 11.1967C130.971 12.022 130.833 12.7296 130.558 13.3196C130.283 13.9062 129.905 14.3587 129.424 14.6768C128.944 14.9917 128.395 15.1491 127.779 15.1491C127.315 15.1491 126.935 15.0713 126.64 14.9155C126.349 14.7597 126.12 14.5774 125.954 14.3686C125.788 14.1598 125.661 13.9742 125.571 13.8118H125.482V17.8636H123.995ZM125.452 11.1818C125.452 11.7187 125.53 12.1894 125.686 12.5938C125.842 12.9981 126.067 13.3146 126.362 13.5433C126.657 13.7687 127.018 13.8814 127.446 13.8814C127.89 13.8814 128.261 13.7637 128.559 13.5284C128.858 13.2898 129.083 12.9666 129.235 12.5589C129.391 12.1513 129.469 11.6922 129.469 11.1818C129.469 10.678 129.393 10.2256 129.24 9.82457C129.091 9.42353 128.866 9.10701 128.564 8.875C128.266 8.64299 127.893 8.52699 127.446 8.52699C127.015 8.52699 126.65 8.63802 126.352 8.86009C126.057 9.08215 125.833 9.39205 125.681 9.78977C125.528 10.1875 125.452 10.6515 125.452 11.1818ZM137.473 11.8331V7.36364H138.965V15H137.503V13.6776H137.424C137.248 14.0852 136.966 14.425 136.578 14.6967C136.194 14.9652 135.715 15.0994 135.142 15.0994C134.651 15.0994 134.217 14.9917 133.839 14.7763C133.465 14.5575 133.17 14.2344 132.954 13.8068C132.742 13.3793 132.636 12.8506 132.636 12.2209V7.36364H134.123V12.0419C134.123 12.5623 134.267 12.9766 134.555 13.2848C134.843 13.593 135.218 13.7472 135.679 13.7472C135.957 13.7472 136.234 13.6776 136.509 13.5384C136.787 13.3991 137.018 13.1887 137.2 12.907C137.386 12.6252 137.477 12.2673 137.473 11.8331ZM142.449 4.81818V15H140.962V4.81818H142.449ZM146.671 15.169C146.187 15.169 145.749 15.0795 145.358 14.9006C144.967 14.7183 144.657 14.4548 144.429 14.1101C144.203 13.7654 144.091 13.3428 144.091 12.8423C144.091 12.4115 144.173 12.0568 144.339 11.7784C144.505 11.5 144.729 11.2796 145.01 11.1172C145.292 10.9548 145.607 10.8321 145.955 10.7493C146.303 10.6664 146.658 10.6035 147.019 10.5604C147.476 10.5073 147.847 10.4643 148.132 10.4311C148.417 10.3946 148.625 10.3366 148.754 10.2571C148.883 10.1776 148.948 10.0483 148.948 9.86932V9.83452C148.948 9.40033 148.825 9.06392 148.58 8.82528C148.338 8.58665 147.977 8.46733 147.496 8.46733C146.996 8.46733 146.601 8.57836 146.313 8.80043C146.028 9.01918 145.831 9.26278 145.721 9.53125L144.324 9.21307C144.49 8.74905 144.732 8.37453 145.05 8.08949C145.372 7.80114 145.741 7.59233 146.159 7.46307C146.576 7.33049 147.016 7.2642 147.476 7.2642C147.781 7.2642 148.104 7.30066 148.446 7.37358C148.79 7.44318 149.112 7.57244 149.41 7.76136C149.712 7.95028 149.959 8.22041 150.151 8.57173C150.343 8.91974 150.439 9.37216 150.439 9.92898V15H148.988V13.956H148.928C148.832 14.1482 148.688 14.3371 148.495 14.5227C148.303 14.7083 148.056 14.8625 147.755 14.9851C147.453 15.1077 147.092 15.169 146.671 15.169ZM146.994 13.9759C147.405 13.9759 147.756 13.8946 148.048 13.7322C148.343 13.5698 148.567 13.3577 148.719 13.0959C148.875 12.8307 148.953 12.5473 148.953 12.2457V11.2614C148.9 11.3144 148.797 11.3641 148.645 11.4105C148.495 11.4536 148.325 11.4917 148.132 11.5249C147.94 11.5547 147.753 11.5829 147.571 11.6094C147.388 11.6326 147.236 11.6525 147.113 11.669C146.825 11.7055 146.561 11.7668 146.323 11.853C146.087 11.9392 145.899 12.0634 145.756 12.2259C145.617 12.3849 145.547 12.5971 145.547 12.8622C145.547 13.2301 145.683 13.5085 145.955 13.6974C146.227 13.883 146.573 13.9759 146.994 13.9759ZM152.419 15V7.36364H153.856V8.5767H153.936C154.075 8.16572 154.32 7.84257 154.671 7.60724C155.026 7.36861 155.427 7.24929 155.874 7.24929C155.967 7.24929 156.077 7.2526 156.203 7.25923C156.332 7.26586 156.433 7.27415 156.506 7.28409V8.70597C156.446 8.68939 156.34 8.67116 156.188 8.65128C156.035 8.62808 155.883 8.61648 155.73 8.61648C155.379 8.61648 155.066 8.69105 154.791 8.8402C154.519 8.98603 154.303 9.18987 154.144 9.4517C153.985 9.71023 153.906 10.0052 153.906 10.3366V15H152.419ZM159.667 4.81818L159.537 12.0717H158.16L158.031 4.81818H159.667ZM158.851 15.0945C158.576 15.0945 158.341 14.9983 158.145 14.8061C157.95 14.6106 157.854 14.3752 157.857 14.1001C157.854 13.8284 157.95 13.5964 158.145 13.4041C158.341 13.2086 158.576 13.1108 158.851 13.1108C159.12 13.1108 159.352 13.2086 159.547 13.4041C159.743 13.5964 159.842 13.8284 159.846 14.1001C159.842 14.2824 159.794 14.4498 159.701 14.6023C159.612 14.7514 159.493 14.8707 159.343 14.9602C159.194 15.0497 159.03 15.0945 158.851 15.0945Z" fill="#4FA4AB"/>
</svg>
