<svg width="54" height="55" viewBox="0 0 54 55" fill="none" xmlns="http://www.w3.org/2000/svg">
<g clip-path="url(#clip0_11_4889)" filter="url(#filter0_d_11_4889)">
<path d="M16.1592 40.2535L16.9111 40.6333C20.0446 42.532 23.5538 43.4181 27.0632 43.4181C38.0923 43.4181 47.1162 34.3041 47.1162 23.1647C47.1162 17.8483 44.9855 12.6583 41.2257 8.86078C37.4656 5.06321 32.4522 2.91138 27.0632 2.91138C16.034 2.91138 7.00991 12.0254 7.13532 23.2914C7.13532 27.0888 8.26331 30.7599 10.1432 33.9243L10.6445 34.6839L8.63936 42.1524L16.1592 40.2535Z" fill="#00E676"/>
<path d="M43.3564 6.83551C39.0951 2.40517 33.2045 0 27.1886 0C14.4049 0 4.12761 10.5064 4.25284 23.2913C4.25284 27.342 5.38082 31.2663 7.26092 34.8105L4.0022 46.836L16.1594 43.6713C19.5433 45.5702 23.3031 46.4563 27.0633 46.4563C39.7218 46.4563 49.9991 35.9497 49.9991 23.165C49.9991 16.9623 47.6177 11.1394 43.3566 6.83551H43.3564ZM27.1886 42.5323C23.8046 42.5323 20.4207 41.6464 17.538 39.8741L16.7861 39.4943L9.51688 41.393L11.3968 34.1779L10.8955 33.4183C5.38082 24.4309 8.01284 12.5318 17.0367 6.96199C26.0606 1.3924 37.7165 4.05071 43.2312 13.1647C48.7457 22.2787 46.1136 34.051 37.09 39.6208C34.2071 41.5195 30.6979 42.5321 27.1886 42.5321V42.5323ZM38.2178 28.4816L36.8391 27.8487C36.8391 27.8487 34.834 26.9626 33.5806 26.3296C33.4552 26.3296 33.3299 26.203 33.2045 26.203C32.8285 26.203 32.5778 26.3296 32.3272 26.4563C32.3272 26.4563 32.202 26.5828 30.4473 28.6081C30.3219 28.8613 30.0712 28.9879 29.8206 28.9879H29.6952C29.5699 28.9879 29.3193 28.8613 29.1939 28.7348L28.5672 28.4816C27.1886 27.8487 25.9353 27.0891 24.9326 26.0765C24.682 25.8233 24.3059 25.5702 24.0553 25.317C23.1779 24.4309 22.3006 23.4182 21.6741 22.2789L21.5486 22.0258C21.4234 21.8991 21.4234 21.7726 21.298 21.5195C21.298 21.2663 21.298 21.0132 21.4234 20.8865C21.4234 20.8865 21.9247 20.2536 22.3006 19.8739C22.5514 19.6206 22.6766 19.241 22.9273 18.9878C23.1779 18.608 23.3033 18.1017 23.1779 17.7219C23.0527 17.0889 21.5486 13.6712 21.1728 12.9118C20.9219 12.5319 20.6715 12.4055 20.2954 12.2788H18.9168C18.666 12.2788 18.4155 12.4055 18.1647 12.4055L18.0393 12.5319C17.7886 12.6586 17.538 12.9118 17.2874 13.0382C17.0367 13.2916 16.9113 13.5445 16.6607 13.7979C15.7833 14.9371 15.282 16.3295 15.282 17.7219C15.282 18.7345 15.5327 19.7473 15.9087 20.6334L16.0341 21.0132C17.1621 23.4182 18.666 25.5702 20.6715 27.4689L21.1728 27.9752C21.5486 28.355 21.9247 28.6081 22.1753 28.9877C24.8074 31.2664 27.8153 32.912 31.1992 33.7981C31.5753 33.9246 32.0766 33.9246 32.4526 34.0512H33.7058C34.3325 34.0512 35.0844 33.7981 35.5859 33.5449C35.9618 33.2918 36.2124 33.2918 36.4631 33.0386L36.7139 32.7853C36.9645 32.5322 37.2152 32.4057 37.4658 32.1525C37.7165 31.8994 37.9671 31.6462 38.0925 31.3929C38.3432 30.8866 38.4684 30.2537 38.5938 29.6209V28.7348C38.5938 28.7348 38.4684 28.6081 38.2178 28.4816Z" fill="white"/>
</g>
<defs>
<filter id="filter0_d_11_4889" x="0" y="0" width="54" height="55" filterUnits="userSpaceOnUse" color-interpolation-filters="sRGB">
<feFlood flood-opacity="0" result="BackgroundImageFix"/>
<feColorMatrix in="SourceAlpha" type="matrix" values="0 0 0 0 0 0 0 0 0 0 0 0 0 0 0 0 0 0 127 0" result="hardAlpha"/>
<feOffset dy="4"/>
<feGaussianBlur stdDeviation="2"/>
<feComposite in2="hardAlpha" operator="out"/>
<feColorMatrix type="matrix" values="0 0 0 0 0 0 0 0 0 0 0 0 0 0 0 0 0 0 0.25 0"/>
<feBlend mode="normal" in2="BackgroundImageFix" result="effect1_dropShadow_11_4889"/>
<feBlend mode="normal" in="SourceGraphic" in2="effect1_dropShadow_11_4889" result="shape"/>
</filter>
<clipPath id="clip0_11_4889">
<rect width="46" height="47" fill="white" transform="translate(4)"/>
</clipPath>
</defs>
</svg>
